<?xml version="1.0" standalone="no"?>
<!DOCTYPE svg PUBLIC "-//W3C//DTD SVG 20010904//EN"
 "http://www.w3.org/TR/2001/REC-SVG-20010904/DTD/svg10.dtd">
<svg version="1.0" xmlns="http://www.w3.org/2000/svg"
 width="438.000000pt" height="438.000000pt" viewBox="0 0 438.000000 438.000000"
 preserveAspectRatio="xMidYMid meet">

<g transform="translate(0.000000,438.000000) scale(0.100000,-0.100000)"
fill="#000000" stroke="none">
<path d="M3587 4148 c-10 -104 4 -360 24 -448 37 -156 110 -268 199 -302 45
-18 45 -18 62 5 15 19 71 109 132 211 40 68 144 273 155 309 27 81 -12 162
-81 168 -39 4 -60 -9 -81 -50 -67 -129 -110 -215 -132 -265 -17 -41 -29 -56
-36 -49 -5 5 -19 50 -29 99 -23 109 -74 265 -102 316 -19 34 -58 58 -93 58 -8
0 -14 -21 -18 -52z"/>
<path d="M2807 3743 c-1 -1 -67 -9 -147 -17 -114 -13 -156 -14 -202 -5 -31 6
-78 8 -103 5 -41 -7 -44 -9 -34 -27 11 -21 10 -21 -298 -14 -258 6 -328 4
-432 -10 -108 -14 -298 -55 -396 -84 -16 -5 -58 -17 -92 -27 -68 -18 -79 -30
-35 -40 15 -3 33 -8 41 -10 8 -2 92 -4 187 -5 96 0 174 -3 174 -8 0 -10 -11
-12 -157 -41 -98 -18 -177 -45 -236 -81 -23 -13 -25 -18 -13 -28 8 -7 26 -9
43 -5 44 10 176 53 193 63 21 11 285 51 435 65 49 4 49 4 20 -9 -16 -8 -38
-14 -47 -15 -9 0 -19 -4 -22 -9 -3 -4 -29 -11 -58 -15 -61 -8 -131 -27 -243
-67 -73 -26 -81 -27 -92 -12 -11 15 -17 14 -69 -6 -53 -20 -158 -86 -196 -123
-10 -10 -23 -18 -29 -18 -6 0 -66 -27 -133 -59 -66 -33 -137 -66 -156 -75 -19
-8 -62 -32 -95 -51 -33 -20 -94 -53 -136 -74 -85 -42 -143 -80 -198 -128 l-36
-32 30 -11 c46 -18 105 -3 176 42 35 23 70 48 76 54 7 7 29 22 50 35 21 13 40
26 43 29 3 3 28 19 55 35 28 15 52 31 55 35 20 24 110 61 110 44 0 -5 -108
-141 -137 -172 -58 -62 -223 -347 -258 -447 -9 -27 -23 -63 -31 -80 -7 -16
-28 -94 -46 -172 -28 -123 -35 -143 -55 -152 -13 -6 -30 -11 -38 -11 -62 0
-198 -109 -239 -192 -31 -61 -35 -150 -11 -241 19 -73 50 -121 117 -182 56
-51 96 -69 203 -90 l60 -11 0 -50 0 -49 37 -3 c54 -5 78 12 78 52 0 60 18 91
66 115 25 13 47 21 48 20 2 -2 20 -40 42 -84 60 -123 187 -246 365 -353 75
-45 139 -82 142 -82 3 0 21 -10 40 -23 34 -23 233 -81 440 -129 78 -18 58 -33
-70 -51 -134 -20 -237 -38 -338 -62 -38 -9 -97 -22 -130 -29 -33 -7 -80 -19
-105 -26 -25 -7 -49 -13 -55 -15 -5 -1 -17 -5 -25 -8 -18 -7 -163 -27 -240
-34 -91 -7 -156 22 -235 106 -101 106 -217 175 -295 172 -70 -2 -88 -10 -100
-47 -23 -69 23 -148 150 -256 l54 -46 -47 -22 c-25 -12 -62 -39 -82 -61 -30
-34 -41 -39 -77 -39 l-43 0 0 64 c0 40 -5 70 -13 78 -11 11 -13 -6 -11 -89 l3
-102 42 6 c82 11 118 -16 93 -70 -6 -14 -40 -42 -75 -62 -50 -29 -64 -43 -64
-61 0 -24 22 -34 111 -50 34 -6 34 -6 11 10 -22 17 -30 46 -12 46 13 0 92 51
102 65 31 46 36 49 51 37 14 -12 12 -19 -13 -60 -16 -26 -32 -60 -36 -75 -6
-28 -6 -28 32 -25 34 3 41 8 67 53 32 56 85 115 103 115 20 0 39 29 26 42 -9
9 -26 7 -69 -5 -82 -22 -133 -14 -160 27 -19 30 -20 34 -5 58 18 31 130 93
185 103 28 5 37 12 35 24 -3 12 -19 17 -75 22 -82 6 -118 28 -177 107 -44 60
-57 123 -31 152 43 48 128 5 265 -133 74 -73 103 -96 130 -100 218 -36 179
-39 465 38 72 19 180 46 240 60 61 14 133 32 162 41 48 14 262 50 360 61 47 6
44 11 62 -127 6 -41 13 -89 17 -107 6 -30 4 -32 -32 -42 -52 -14 -195 -49
-265 -65 -31 -7 -61 -16 -67 -20 -7 -4 -33 -11 -60 -16 -254 -46 -361 -74
-497 -130 -38 -16 -90 -37 -115 -46 -52 -20 -130 -71 -130 -84 0 -6 -1 -13 -2
-17 -5 -15 57 -10 74 6 46 43 83 64 148 80 25 7 59 18 75 25 17 8 41 19 55 24
40 16 161 50 205 57 52 8 334 73 415 96 68 19 194 39 201 31 7 -8 23 -85 40
-192 6 -41 17 -90 25 -107 12 -31 16 -33 63 -33 28 0 51 4 51 10 0 5 -6 34
-14 64 -8 30 -22 107 -32 171 -20 136 -23 131 76 140 134 12 149 15 143 31 -9
23 -52 28 -148 16 -49 -6 -93 -8 -97 -4 -9 9 -34 210 -27 216 2 2 56 -1 119
-6 63 -5 213 -12 334 -16 l218 -7 27 -85 c65 -205 70 -229 51 -231 -5 -1 -14
-2 -20 -3 -22 -2 -10 -21 26 -41 30 -17 41 -31 51 -66 7 -24 16 -51 20 -59 3
-8 7 -19 9 -25 2 -5 11 -32 20 -58 l17 -48 44 2 c43 3 44 3 37 33 -4 17 -17
54 -29 81 -13 28 -26 61 -30 74 -7 22 -5 23 26 18 45 -6 256 -62 292 -76 l27
-11 -30 -53 c-16 -30 -30 -56 -30 -59 0 -2 20 -6 45 -6 43 -2 46 0 79 45 33
45 34 49 18 66 -41 45 -184 100 -368 142 -38 9 -77 18 -86 21 -9 3 -24 28 -34
57 -9 29 -25 68 -35 87 -11 19 -19 39 -19 43 0 5 -14 40 -31 79 -17 38 -28 72
-25 75 8 8 47 8 91 -1 36 -7 38 -6 21 7 -18 13 -14 17 69 56 48 22 90 41 92
41 10 0 117 73 151 103 78 68 275 275 326 342 141 186 183 258 236 404 13 34
28 60 34 58 11 -4 33 -132 58 -329 13 -109 18 -115 89 -103 l39 7 -7 51 c-14
101 -12 112 24 115 43 4 47 21 37 156 -5 61 -9 118 -9 126 0 9 15 17 42 22 58
10 99 33 154 88 76 77 99 131 101 247 2 88 -1 103 -24 149 -52 100 -196 194
-297 194 l-49 0 -21 83 c-36 142 -81 268 -143 396 -33 67 -58 125 -56 126 2 2
21 6 43 9 49 6 75 15 75 27 0 17 -76 57 -215 115 -114 48 -148 67 -183 102
-31 33 -48 43 -63 39 -33 -9 -99 26 -99 52 0 6 11 11 24 11 14 0 28 5 31 10 7
11 43 5 90 -15 33 -14 240 -80 320 -101 95 -26 131 8 43 40 -77 27 -214 94
-278 135 -64 42 -103 64 -222 125 -47 25 -89 50 -92 55 -3 5 2 22 11 39 14 24
15 34 4 59 -21 51 -79 75 -194 82 -54 3 -99 5 -100 4z m205 -49 c14 -9 9 -30
-14 -59 -20 -25 -26 -27 -72 -22 -59 6 -156 36 -156 48 0 32 200 59 242 33z
m-1051 -45 c63 -1 123 -5 134 -9 41 -16 -53 -42 -185 -52 -69 -4 -172 -13
-230 -18 -139 -13 -320 -13 -320 0 0 6 11 10 25 10 15 0 38 6 53 14 15 8 54
19 87 25 64 13 306 39 316 34 3 -1 57 -3 120 -4z m882 -66 c15 -9 6 -23 -16
-23 -23 0 -47 17 -47 32 0 8 45 1 63 -9z m-839 -93 c33 -5 138 -19 231 -31 94
-11 180 -26 193 -32 23 -11 23 -11 3 -19 -43 -16 -201 -21 -273 -9 -81 14
-125 18 -211 20 -48 1 -62 5 -81 26 -13 14 -34 25 -47 25 l-24 1 25 14 c29 17
99 19 184 5z m689 -35 c-3 -16 -84 -25 -120 -13 -58 17 -37 29 45 26 44 -2 76
-7 75 -13z m535 -36 c64 -43 78 -63 40 -55 -206 43 -242 55 -225 73 8 7 67 21
98 22 15 1 52 -16 87 -40z m-299 -50 c53 -28 103 -57 111 -63 8 -7 42 -28 75
-46 33 -18 88 -52 122 -75 55 -38 68 -54 113 -137 92 -171 160 -313 166 -345
6 -32 6 -33 -31 -33 l-37 0 7 -52 c3 -29 19 -109 34 -178 110 -483 134 -635
104 -672 -6 -7 -13 -34 -15 -60 -8 -73 -112 -284 -201 -407 -35 -49 -72 -98
-160 -213 -7 -9 -26 -32 -43 -50 -16 -18 -51 -59 -78 -91 -131 -155 -315 -267
-439 -267 -34 0 -40 4 -50 30 -15 40 -41 41 -32 1 8 -39 -2 -40 -241 -25 -212
13 -392 39 -409 60 -6 7 -12 43 -13 80 -4 96 -17 118 -70 121 l-43 3 6 -84 c6
-74 5 -85 -11 -94 -10 -6 -27 -6 -38 -2 -12 5 -73 20 -136 35 -193 44 -245 63
-383 139 -202 110 -293 182 -383 299 -38 50 -124 212 -124 235 0 4 -8 23 -19
42 -34 65 -61 197 -61 302 0 112 3 117 69 93 53 -19 121 -20 121 -2 0 13 -31
28 -95 46 -97 28 -148 47 -151 56 -2 6 10 55 26 110 65 213 72 247 50 260 -6
3 -29 3 -53 0 l-42 -7 -33 -111 c-18 -62 -38 -122 -43 -135 -5 -13 -9 -33 -9
-45 -1 -36 -21 -53 -65 -52 l-40 0 2 39 c2 21 7 44 12 50 4 6 16 36 26 66 22
70 125 277 205 410 118 198 295 421 424 537 71 63 274 165 391 197 50 13 102
29 116 34 36 14 200 42 247 42 20 0 105 -11 187 -25 162 -27 331 -32 445 -14
36 5 88 13 115 17 36 6 78 3 140 -10 103 -20 134 -22 88 -5 -17 7 -35 15 -38
19 -15 14 8 28 47 28 30 0 67 -13 137 -51z m587 -335 c42 -20 45 -44 5 -44
-19 0 -34 8 -45 25 -27 41 -17 46 40 19z m437 -738 c37 -15 83 -68 116 -133
29 -57 29 -180 1 -256 -25 -66 -105 -167 -146 -183 l-32 -13 -22 87 c-22 90
-26 99 -92 240 -24 51 -41 104 -44 141 l-7 58 39 24 c78 49 131 59 187 35z
m-3503 -330 c0 -13 -9 -70 -20 -126 -26 -129 -39 -278 -34 -397 l4 -93 -37 0
c-102 0 -215 136 -244 292 -10 57 -10 70 6 112 48 124 181 232 293 235 27 1
32 -2 32 -23z m148 -498 c17 -17 15 -55 -4 -62 -28 -11 -34 -6 -34 27 0 46 14
59 38 35z"/>
<path d="M1370 2418 c-86 -11 -134 -30 -223 -88 -85 -56 -107 -90 -107 -167 0
-34 5 -74 10 -89 19 -50 91 -107 105 -83 4 5 0 38 -9 72 -16 66 -16 100 2 133
18 33 110 100 196 140 71 34 88 38 160 38 86 0 119 -11 166 -56 27 -26 35 -37
81 -111 16 -26 34 -47 40 -47 6 0 9 3 7 8 -61 131 -68 141 -122 185 -89 73
-147 85 -306 65z"/>
<path d="M2216 2110 c-21 -10 -46 -29 -55 -42 -19 -27 -24 -130 -8 -140 22
-14 45 -8 50 13 5 17 10 20 29 14 13 -4 44 -10 71 -12 l47 -5 0 43 c0 54 -33
122 -66 137 -31 15 -23 16 -68 -8z"/>
<path d="M2883 2096 c-22 -7 -61 -26 -85 -42 -23 -16 -55 -35 -70 -43 -15 -8
-39 -27 -54 -42 -42 -44 -5 -38 60 10 83 61 146 90 212 97 69 7 68 8 206 -82
131 -87 170 -150 170 -275 -1 -57 16 -79 58 -79 84 0 21 186 -101 303 -22 20
-43 37 -46 37 -4 0 -35 18 -70 41 -76 50 -168 89 -208 88 -16 0 -49 -6 -72
-13z"/>
<path d="M2696 1658 c-3 -7 -7 -33 -9 -57 -3 -26 -17 -60 -35 -85 -16 -22 -32
-51 -36 -64 -4 -12 -29 -44 -54 -70 -36 -37 -63 -54 -112 -70 -78 -27 -177
-29 -223 -6 -57 29 -127 86 -152 122 -21 31 -24 43 -18 89 5 49 4 53 -15 53
-30 0 -79 -31 -91 -58 -24 -51 -14 -77 55 -145 36 -35 91 -77 123 -93 50 -24
67 -27 151 -27 89 0 100 3 175 38 63 30 95 54 153 114 40 42 81 90 89 106 21
39 33 103 26 138 -6 28 -21 36 -27 15z"/>
<path d="M3 1310 c1 -113 10 -141 22 -70 6 35 -11 180 -20 180 -2 0 -3 -49 -2
-110z"/>
<path d="M2808 603 c7 -3 16 -2 19 1 4 3 -2 6 -13 5 -11 0 -14 -3 -6 -6z"/>
<path d="M2850 590 c8 -5 22 -10 30 -10 13 0 13 1 0 10 -8 5 -22 10 -30 10
-13 0 -13 -1 0 -10z"/>
<path d="M2980 546 c253 -111 272 -119 370 -147 88 -24 116 -24 134 3 23 33
20 57 -10 68 -35 14 -54 12 -54 -3 0 -7 -6 -21 -13 -31 -13 -17 -17 -17 -90
-2 -42 8 -98 26 -124 40 -57 28 -237 96 -255 96 -7 0 12 -11 42 -24z"/>
<path d="M3771 453 c-10 -28 -54 -83 -66 -83 -4 0 -13 -7 -22 -15 -14 -14 -13
-15 13 -9 16 4 31 11 32 16 2 4 11 8 20 8 10 0 33 5 53 10 38 11 53 39 42 81
-9 31 -59 25 -72 -8z"/>
<path d="M440 73 c-19 -8 -49 -45 -50 -60 0 -19 66 -16 85 3 32 32 7 73 -35
57z"/>
<path d="M3665 30 c-7 -11 0 -14 50 -25 29 -6 29 -6 11 14 -20 22 -51 28 -61
11z"/>
<path d="M3438 3 c12 -2 30 -2 40 0 9 3 -1 5 -23 4 -22 0 -30 -2 -17 -4z"/>
</g>
</svg>
